<svg height="512pt" viewBox="0 0 512 512" width="512pt" xmlns="http://www.w3.org/2000/svg"><path d="m502 136v346c0 11.050781-8.949219 20-20 20h-452c-11.050781 0-20-8.949219-20-20v-346zm0 0" fill="#fff"/><path d="m482 50c11.050781 0 20 8.949219 20 20v66h-492v-66c0-11.050781 8.949219-20 20-20zm0 0" fill="#ff5d5d"/><path d="m256 256-100 40 50 20v60c0 11.050781 22.390625 20 50 20s50-8.949219 50-20v-60l50-20zm0 0" fill="#4e8dc2"/><path d="m116 166c-5.519531 0-10 4.480469-10 10s4.480469 10 10 10 10-4.480469 10-10-4.480469-10-10-10zm0 0"/><path d="m482 40h-16v-10c0-16.542969-13.457031-30-30-30s-30 13.457031-30 30v10h-60v-10c0-16.542969-13.457031-30-30-30s-30 13.457031-30 30v10h-60v-10c0-16.542969-13.457031-30-30-30s-30 13.457031-30 30v10h-60v-10c0-16.542969-13.457031-30-30-30s-30 13.457031-30 30v10h-16c-16.542969 0-30 13.457031-30 30v412c0 16.542969 13.457031 30 30 30h452c16.542969 0 30-13.457031 30-30v-412c0-16.542969-13.457031-30-30-30zm-56-10c0-5.515625 4.484375-10 10-10s10 4.484375 10 10v10h-20zm-120 0c0-5.515625 4.484375-10 10-10s10 4.484375 10 10v10h-20zm-120 0c0-5.515625 4.484375-10 10-10s10 4.484375 10 10v10h-20zm-120 0c0-5.515625 4.484375-10 10-10s10 4.484375 10 10v10h-20zm-36 30h16v13c0 16.542969 13.457031 30 30 30 5.523438 0 10-4.476562 10-10s-4.476562-10-10-10c-5.515625 0-10-4.484375-10-10v-13h100v13c0 16.542969 13.457031 30 30 30 5.523438 0 10-4.476562 10-10s-4.476562-10-10-10c-5.515625 0-10-4.484375-10-10v-13h100v13c0 16.542969 13.457031 30 30 30 5.523438 0 10-4.476562 10-10s-4.476562-10-10-10c-5.515625 0-10-4.484375-10-10v-13h100v13c0 16.542969 13.457031 30 30 30 5.523438 0 10-4.476562 10-10s-4.476562-10-10-10c-5.515625 0-10-4.484375-10-10v-13h56c5.515625 0 10 4.484375 10 10v56h-472v-56c0-5.515625 4.484375-10 10-10zm452 432h-452c-5.515625 0-10-4.484375-10-10v-336h472v336c0 5.515625-4.484375 10-10 10zm0 0"/><path d="m396 166h-240c-5.523438 0-10 4.476562-10 10s4.476562 10 10 10h240c5.523438 0 10-4.476562 10-10s-4.476562-10-10-10zm0 0"/><path d="m359.714844 286.714844-100-40c-2.386719-.953125-5.042969-.953125-7.429688 0l-100 40c-3.796875 1.519531-6.285156 5.195312-6.285156 9.285156s2.488281 7.765625 6.285156 9.285156l43.714844 17.484375v53.230469c0 20.613281 31.101562 30 60 30s60-9.386719 60-30v-53.230469l30-12v105.230469c0 5.523438 4.476562 10 10 10s10-4.476562 10-10v-120c0-4.066406-2.492188-7.757812-6.285156-9.285156zm-63.714844 88.921875c-1.777344 3.105469-15.613281 10.363281-40 10.363281s-38.226562-7.261719-40-10.363281v-44.867188l36.285156 14.515625c1.191406.476563 2.453125.714844 3.714844.714844s2.519531-.238281 3.714844-.714844l36.285156-14.515625zm6.128906-68.859375c-.011718.003906-.019531.007812-.03125.011718l-46.097656 18.441407-46.097656-18.441407c-.011719-.003906-.023438-.007812-.035156-.011718l-26.941407-10.777344 73.074219-29.230469 73.074219 29.230469zm0 0"/></svg>